<svg width="129" height="126" viewBox="0 0 129 126" fill="none" xmlns="http://www.w3.org/2000/svg">
<g clip-path="url(#clip0_23_1910)">
<path d="M29.9506 82.0545L9.83329 102.172C4.27692 107.728 4.27692 116.733 9.83329 122.289C15.3897 127.846 24.3943 127.846 29.9506 122.289L70.1853 82.0545C75.7417 76.4981 75.7417 67.4935 70.1853 61.9371L29.9506 21.7024C24.3943 16.1461 15.3897 16.1461 9.83329 21.7024C4.27692 27.2588 4.27692 36.2634 9.83329 41.8249L29.9506 61.9371C35.507 67.4935 35.507 76.4981 29.9506 82.0545Z" fill="white"/>
<path d="M9.23527 75.8175L1.58109 83.4665C-0.527031 85.5798 -0.527031 89.0023 1.58109 91.1156C3.69437 93.2237 7.12199 93.2237 9.23527 91.1156L24.523 75.8175C26.6363 73.7094 26.6363 70.2818 24.523 68.1736L9.23527 52.8756C7.12199 50.7675 3.69437 50.7675 1.58109 52.8756C-0.527031 54.9889 -0.527031 58.4113 1.58109 60.5246L9.23527 68.1736C11.3434 70.2818 11.3434 73.7094 9.23527 75.8175Z" fill="white"/>
<path d="M5.41119 92.6929C5.04008 92.6929 4.66381 92.6569 4.29785 92.5795C5.29779 92.3734 6.24103 91.8889 7.01934 91.1157L22.3122 75.8177C24.4204 73.7095 24.4204 70.2819 22.3122 68.1738L7.01934 52.8757C6.24103 52.1078 5.29779 51.6181 4.29785 51.4119C4.66381 51.3398 5.04008 51.2985 5.41119 51.2985C6.79255 51.2985 8.17906 51.8243 9.2357 52.8757L24.5234 68.1738C25.5801 69.2253 26.111 70.6118 26.111 71.9932C26.111 73.3797 25.5801 74.761 24.5234 75.8177L9.2357 91.1157C8.17906 92.1672 6.79255 92.6929 5.41119 92.6929Z" fill="#C7C7C7"/>
<path d="M63.294 88.9456L43.2489 68.9056C37.6976 63.3492 37.6976 54.3394 43.2489 48.7831L50.1402 41.8917L70.1854 61.9369C72.9636 64.7151 74.3552 68.3541 74.3552 71.993C74.3552 75.6371 72.9636 79.2761 70.1854 82.0543L63.294 88.9456Z" fill="#C7C7C7"/>
<path d="M84.3981 44.402L104.515 24.2795C110.072 18.7283 110.072 9.71849 104.515 4.16728C98.9591 -1.38909 89.9545 -1.38909 84.3981 4.16728L44.1634 44.402C38.6122 49.9532 38.6122 58.963 44.1634 64.5142L84.3981 104.749C89.9545 110.305 98.9591 110.305 104.515 104.749C110.072 99.1976 110.072 90.1879 104.515 84.6367L84.3981 64.5142C78.8469 58.963 78.8469 49.9532 84.3981 44.402Z" fill="white"/>
<path d="M108.59 50.6335L116.234 42.9896C118.347 40.8763 118.347 37.4538 116.234 35.3406C114.126 33.2273 110.704 33.2273 108.59 35.3406L93.2974 50.6335C91.1841 52.7467 91.1841 56.1692 93.2974 58.2825L108.59 73.5754C110.704 75.6887 114.126 75.6887 116.234 73.5754C118.347 71.4673 118.347 68.0396 116.234 65.9315L108.59 58.2825C106.477 56.1692 106.477 52.7467 108.59 50.6335Z" fill="white"/>
</g>
<defs>
<clipPath id="clip0_23_1910">
<rect width="129" height="126" fill="white"/>
</clipPath>
</defs>
</svg>
