<svg width="249" height="69" viewBox="0 0 249 69" fill="none" xmlns="http://www.w3.org/2000/svg">
<path d="M16.0831 44.1845L5.28029 55.0172C2.29658 58.0092 2.29658 62.858 5.28029 65.85C8.26399 68.842 13.0994 68.842 16.0831 65.85L37.6887 44.1845C40.6724 41.1925 40.6724 36.3437 37.6887 33.3517L16.0831 11.6862C13.0994 8.69424 8.26399 8.69424 5.28029 11.6862C2.29658 14.6782 2.29658 19.527 5.28029 22.5218L16.0831 33.3517C19.0668 36.3437 19.0668 41.1925 16.0831 44.1845Z" fill="white"/>
<path d="M4.95924 40.8261L0.849029 44.945C-0.28301 46.0829 -0.28301 47.9259 0.849029 49.0638C1.98383 50.199 3.82443 50.199 4.95924 49.0638L13.1686 40.8261C14.3034 39.691 14.3034 37.8453 13.1686 36.7101L4.95924 28.4724C3.82443 27.3372 1.98383 27.3372 0.849029 28.4724C-0.28301 29.6104 -0.28301 31.4533 0.849029 32.5912L4.95924 36.7101C6.09128 37.8453 6.09128 39.691 4.95924 40.8261Z" fill="white"/>
<path d="M2.90556 49.9131C2.70628 49.9131 2.50423 49.8937 2.30771 49.852C2.84467 49.741 3.35118 49.4801 3.76912 49.0638L11.9812 40.8261C13.1133 39.691 13.1133 37.8453 11.9812 36.7101L3.76912 28.4724C3.35118 28.0589 2.84467 27.7952 2.30771 27.6842C2.50423 27.6453 2.70628 27.6231 2.90556 27.6231C3.64734 27.6231 4.39184 27.9062 4.95924 28.4724L13.1686 36.7101C13.736 37.2763 14.0211 38.0229 14.0211 38.7667C14.0211 39.5133 13.736 40.2572 13.1686 40.8261L4.95924 49.0638C4.39184 49.63 3.64734 49.9131 2.90556 49.9131Z" fill="#C7C7C7"/>
<path d="M33.9882 47.8953L23.2241 37.1042C20.2432 34.1122 20.2432 29.2607 23.2241 26.2687L26.9247 22.5578L37.6887 33.3517C39.1805 34.8477 39.9279 36.8072 39.9279 38.7667C39.9279 40.729 39.1805 42.6885 37.6887 44.1845L33.9882 47.8953Z" fill="#C7C7C7"/>
<path d="M47.185 23.9095L57.9878 13.074C60.9715 10.0848 60.9715 5.2332 57.9878 2.24399C55.0041 -0.747996 50.1688 -0.747996 47.185 2.24399L25.5794 23.9095C22.5985 26.8987 22.5985 31.7503 25.5794 34.7395L47.185 56.405C50.1688 59.397 55.0041 59.397 57.9878 56.405C60.9715 53.4158 60.9715 48.5642 57.9878 45.575L47.185 34.7395C44.2041 31.7503 44.2041 26.8987 47.185 23.9095Z" fill="white"/>
<path d="M58.3117 27.2651L62.4164 23.149C63.5512 22.0111 63.5512 20.1681 62.4164 19.0302C61.2843 17.8922 59.4465 17.8922 58.3117 19.0302L50.0996 27.2651C48.9648 28.403 48.9648 30.246 50.0996 31.3839L58.3117 39.6188C59.4465 40.7567 61.2843 40.7567 62.4164 39.6188C63.5512 38.4836 63.5512 36.6379 62.4164 35.5027L58.3117 31.3839C57.1769 30.246 57.1769 28.403 58.3117 27.2651Z" fill="white"/>
<path d="M80.2636 44.1694H94.5567V51.419H72.4695V15.4486H93.992V22.6427H80.2636V29.7368H92.6635V36.7755H80.2636V44.1694Z" fill="white"/>
<path d="M120.284 23.6196H125.875V51.3635H119.985L119.365 48.8988C118.169 49.9285 116.81 50.7362 115.291 51.3191C113.768 51.8964 112.138 52.185 110.397 52.185C107.629 52.185 105.152 51.5439 102.968 50.2644C100.782 48.9765 99.0547 47.2308 97.7871 45.0242C96.525 42.8122 95.8939 40.3031 95.8939 37.4971C95.8939 34.7216 96.525 32.2292 97.7871 30.0144C99.0547 27.8023 100.782 26.0621 102.968 24.7964C105.152 23.5308 107.629 22.898 110.397 22.898C112.174 22.898 113.832 23.1977 115.368 23.7973C116.902 24.3968 118.269 25.2266 119.465 26.2841L120.284 23.6196ZM111.017 45.1019C112.448 45.1019 113.735 44.7772 114.881 44.125C116.024 43.4755 116.921 42.5763 117.571 41.4272C118.219 40.2809 118.546 38.9709 118.546 37.4971C118.546 36.0538 118.219 34.7605 117.571 33.6114C116.921 32.4651 116.024 31.5575 114.881 30.8914C113.735 30.2197 112.448 29.8811 111.017 29.8811C109.548 29.8811 108.249 30.2197 107.12 30.8914C105.991 31.5575 105.1 32.4651 104.452 33.6114C103.802 34.7605 103.478 36.0538 103.478 37.4971C103.478 38.9709 103.802 40.2726 104.452 41.405C105.1 42.5318 105.991 43.4311 107.12 44.1028C108.249 44.7689 109.548 45.1019 111.017 45.1019Z" fill="white"/>
<path d="M139.971 52.185C137.646 52.185 135.611 51.7742 133.87 50.9527C132.127 50.1311 130.771 48.9765 129.796 47.4889C128.822 46.0012 128.335 44.2637 128.335 42.2709H135.609C135.645 43.5088 136.088 44.4331 136.937 45.0464C137.792 45.6626 138.889 45.9679 140.225 45.9679C141.28 45.9679 142.199 45.7403 142.982 45.2796C143.771 44.8133 144.167 44.1194 144.167 43.1924C144.167 42.2376 143.646 41.566 142.606 41.1718C141.565 40.7722 140.308 40.4558 138.842 40.2171C137.748 40.0478 136.611 39.8063 135.432 39.4955C134.25 39.1846 133.165 38.7405 132.177 38.1632C131.186 37.5804 130.375 36.7727 129.741 35.743C129.113 34.716 128.8 33.3783 128.8 31.7352C128.8 29.9894 129.268 28.449 130.206 27.1167C131.141 25.779 132.437 24.7409 134.092 24.0082C135.753 23.2699 137.712 22.898 139.971 22.898C142.191 22.898 144.128 23.2838 145.783 24.0526C147.444 24.8242 148.734 25.9039 149.658 27.2944C150.58 28.6793 151.042 30.2975 151.042 32.1459H143.912C143.912 31.0524 143.541 30.2309 142.805 29.6813C142.074 29.1345 141.059 28.8598 139.76 28.8598C138.601 28.8598 137.696 29.1095 137.048 29.6036C136.398 30.1004 136.074 30.7443 136.074 31.5353C136.074 32.4623 136.586 33.0952 137.613 33.4338C138.637 33.7752 139.866 34.0666 141.299 34.3108C142.429 34.5107 143.591 34.7605 144.787 35.0547C145.982 35.3433 147.092 35.7818 148.119 36.3647C149.143 36.942 149.971 37.7469 150.599 38.7738C151.233 39.8035 151.551 41.158 151.551 42.8371C151.551 44.7245 151.07 46.3731 150.112 47.7775C149.16 49.1764 147.812 50.2616 146.071 51.0304C144.327 51.7992 142.296 52.185 139.971 52.185Z" fill="white"/>
<path d="M173.233 23.664H181.227L169.126 51.0637C168.032 53.5644 166.923 55.5739 165.793 57.0921C164.67 58.6158 163.391 59.7233 161.952 60.4116C160.518 61.0999 158.757 61.4441 156.671 61.4441H153.604V54.6608H156.217C157.412 54.6608 158.359 54.522 159.062 54.25C159.762 53.9752 160.36 53.4673 160.855 52.729C161.348 51.9963 161.888 50.9277 162.472 49.5205L162.572 49.3096L150.836 23.664H158.984L166.358 40.7278L173.233 23.664Z" fill="white"/>
<path d="M198.286 32.6122H217.406C217.367 35.4543 216.908 38.0688 216.022 40.4502C215.136 42.826 213.88 44.891 212.258 46.6451C210.633 48.3937 208.704 49.7537 206.467 50.7307C204.231 51.6993 201.762 52.185 199.061 52.185C196.426 52.185 193.979 51.7215 191.72 50.7973C189.467 49.873 187.497 48.5741 185.808 46.9005C184.117 45.2213 182.811 43.234 181.889 40.9387C180.965 38.6462 180.505 36.1593 180.505 33.4782C180.505 30.7776 180.954 28.288 181.856 26.0065C182.764 23.7279 184.048 21.7406 185.709 20.0448C187.369 18.3517 189.323 17.0334 191.576 16.0925C193.835 15.146 196.276 14.6714 198.906 14.6714C201.878 14.6714 204.629 15.2571 207.154 16.4255C209.684 17.5885 211.804 19.1983 213.509 21.2549C215.219 23.3143 216.348 25.6929 216.896 28.3935H208.903C208.15 26.4395 206.882 24.9019 205.106 23.775C203.326 22.6426 201.311 22.0764 199.061 22.0764C196.94 22.0764 195.078 22.5649 193.47 23.5419C191.867 24.5189 190.613 25.8567 189.705 27.5497C188.798 29.2456 188.344 31.2217 188.344 33.4782C188.344 35.7069 188.786 37.672 189.672 39.3733C190.563 41.0692 191.812 42.3986 193.414 43.3589C195.022 44.3137 196.904 44.7911 199.061 44.7911C201.386 44.7911 203.47 44.2249 205.316 43.0925C207.159 41.9601 208.408 40.4697 209.058 38.6184H198.286V32.6122Z" fill="white"/>
<path d="M233.144 52.185C230.271 52.185 227.708 51.5439 225.449 50.2644C223.196 48.9765 221.422 47.2308 220.124 45.0242C218.823 42.8122 218.175 40.317 218.175 37.5415C218.175 34.7383 218.823 32.2292 220.124 30.0144C221.422 27.8023 223.196 26.0621 225.449 24.7964C227.708 23.5308 230.271 22.898 233.144 22.898C235.978 22.898 238.519 23.5308 240.772 24.7964C243.03 26.0621 244.807 27.8023 246.108 30.0144C247.406 32.2292 248.057 34.7383 248.057 37.5415C248.057 40.317 247.406 42.8122 246.108 45.0242C244.807 47.2308 243.03 48.9765 240.772 50.2644C238.519 51.5439 235.978 52.185 233.144 52.185ZM233.144 45.1464C235.291 45.1464 237.046 44.4469 238.414 43.0481C239.786 41.6437 240.473 39.8063 240.473 37.5415C240.473 35.285 239.786 33.4532 238.414 32.046C237.046 30.6416 235.291 29.9366 233.144 29.9366C230.952 29.9366 229.172 30.6416 227.807 32.046C226.44 33.4532 225.759 35.285 225.759 37.5415C225.759 39.8063 226.44 41.6437 227.807 43.0481C229.172 44.4469 230.952 45.1464 233.144 45.1464Z" fill="white"/>
</svg>
